<svg fill="white" xmlns="http://www.w3.org/2000/svg" width="300" height="300" viewBox="-2.5 0 300 300">
	<path d="M147.521 297.511c39.315 0 76.438-15.344 104.227-43.133 27.153-27.153 42.427-63.074 43.134-101.259 1.556-.142 2.687-1.413 2.758-2.898 0-1.556-1.202-2.758-2.758-2.899-.707-38.466-15.98-74.246-43.204-101.47-27.86-27.86-64.842-43.204-104.228-43.133-39.386.07-76.368 15.273-104.228 43.133C16.069 73.004.796 108.926.089 147.25c-1.485.212-2.546 1.414-2.617 2.899 0 1.555 1.131 2.687 2.616 2.899.708 38.325 15.981 74.246 43.134 101.399 27.861 27.72 64.913 42.992 104.299 43.064zM1.361 152.908c1.203-.354 2.193-1.485 2.122-2.829 0-1.415-.919-2.475-2.122-2.829C2.917 67.914 67.83 3.85 147.591 3.85s144.745 64.134 146.16 143.472c-1.132.424-2.052 1.485-1.98 2.828 0 1.273.849 2.404 1.98 2.829-1.485 79.408-66.54 143.472-146.16 143.472-79.761-.142-144.815-64.206-146.23-143.543z">
		<animateTransform fill="remove" type="rotate" restart="always" calcMode="linear" additive="replace" accumulate="none" repeatCount="indefinite" dur="5s" begin="0s" values="0 147.5 150;360 147.5 150" attributeName="transform" />
	</path>
	<path d="M264.5 87.3c-6.1-11.3-13.8-21.7-23.1-31-9.301-9.3-19.801-17.1-31-23.1.399-1.3-.2-2.7-1.5-3.4-1.301-.6-2.801-.3-3.601.8C187.5 22 167.9 17.5 147.6 17.5c-6 0-12 .4-17.9 1.2-.5-1.3-1.8-2.1-3.2-1.9-1.4.2-2.4 1.4-2.5 2.8C98.4 24 74.8 35.9 55.7 54.2c-1.1-.8-2.7-.7-3.7.4-1 1-1.1 2.6-.4 3.7-18.3 19.1-30.2 42.6-34.8 68.2-1.4.1-2.6 1.1-2.8 2.5s.6 2.7 1.9 3.2c-.8 5.9-1.2 11.9-1.2 17.9 0 20.3 4.5 39.9 13.1 57.7-1.1.9-1.4 2.4-.8 3.601.6 1.3 2.1 1.899 3.4 1.5 6.1 11.3 13.8 21.699 23.1 31 9.3 9.3 19.8 17.1 31 23.1-.3 1.3.2 2.7 1.5 3.4 1.3.6 2.8.3 3.6-.801 17.8 8.6 37.4 13.1 57.7 13.1 6 0 12-.4 17.9-1.2.5 1.3 1.8 2.1 3.2 1.9 1.399-.2 2.399-1.4 2.5-2.801 25.5-4.6 49.1-16.5 68.199-34.8 1.101.8 2.7.7 3.7-.399 1-1.101 1.101-2.601.4-3.7 18.3-19.101 30.2-42.601 34.8-68.2 1.4-.1 2.6-1.1 2.8-2.5s-.6-2.7-1.899-3.2c.8-5.899 1.199-11.899 1.199-17.9 0-20.3-4.5-39.9-13.1-57.7 1.1-.9 1.4-2.4.8-3.6-.599-1.1-1.999-1.7-3.299-1.3zm13.3 80.5c-1.3.101-2.5 1.101-2.7 2.5-.199 1.4.601 2.7 1.801 3.2-4.4 24.6-15.9 48.3-34.4 67.6-1.1-.699-2.7-.6-3.7.4s-1.1 2.5-.399 3.7c-19.301 18.5-42.9 30-67.601 34.399-.5-1.199-1.8-2-3.2-1.8-1.399.2-2.399 1.4-2.5 2.7-25.3 3.4-51.399-.5-74.899-11.8.3-1.3-.2-2.7-1.5-3.4-1.3-.7-2.8-.3-3.6.8C74 260.2 63.7 252.6 54.3 243.2c-9.3-9.3-16.9-19.7-22.9-30.8 1.1-.9 1.4-2.4.8-3.601-.6-1.3-2.1-1.899-3.4-1.5-11.3-23.5-15.2-49.6-11.8-74.9 1.3-.1 2.5-1.1 2.7-2.5.2-1.4-.6-2.7-1.8-3.2 4.4-24.6 15.9-48.3 34.4-67.6 1.1.7 2.7.6 3.7-.4s1.1-2.5.4-3.7C75.7 36.5 99.3 25 124 20.6c.5 1.2 1.8 2 3.2 1.8 1.4-.2 2.4-1.4 2.5-2.7 25.3-3.4 51.4.5 74.9 11.8-.3 1.3.2 2.7 1.5 3.4 1.301.6 2.801.3 3.601-.8C220.8 40 231.1 47.6 240.5 57c9.3 9.3 16.9 19.7 22.9 30.8-1.101.9-1.4 2.4-.801 3.6.601 1.3 2.101 1.9 3.4 1.5 11.301 23.5 15.201 49.6 11.801 74.9z">
		<animateTransform fill="remove" type="rotate" restart="always" calcMode="linear" additive="replace" accumulate="none" repeatCount="indefinite" dur="4.5s" begin="0s" values="360 147.5 150;0 147.5 150" attributeName="transform" />
	</path>
	<path d="M264.2 167.7c.899-5.8 1.3-11.7 1.3-17.7s-.5-11.9-1.3-17.7c1.3-.5 2.1-1.8 1.8-3.2-.2-1.4-1.5-2.4-2.8-2.4-2.4-11.8-6.5-22.9-12.101-33.2 1.101-.9 1.4-2.5.601-3.7-.7-1.2-2.2-1.8-3.5-1.3-6.2-10.1-13.9-19.2-22.7-27 .7-1.2.5-2.8-.6-3.7-1.101-.9-2.7-.9-3.801 0-9.199-7.3-19.399-13.3-30.5-17.7.2-1.4-.5-2.7-1.899-3.2-1.3-.5-2.8.1-3.5 1.2-11-3.7-22.601-5.8-34.8-6.1-.301-1.4-1.4-2.4-2.9-2.4-1.4 0-2.6 1-2.9 2.4-12.1.3-23.8 2.4-34.8 6.1-.7-1.2-2.2-1.7-3.5-1.2-1.3.5-2.1 1.9-1.9 3.2-11.1 4.4-21.3 10.4-30.5 17.8-1.1-.9-2.7-.9-3.8 0s-1.4 2.5-.6 3.7c-8.9 7.8-16.5 16.9-22.7 27-1.3-.5-2.8 0-3.5 1.3-.7 1.2-.4 2.8.6 3.7-5.6 10.2-9.7 21.4-12.1 33.2-1.4 0-2.6 1-2.8 2.4-.2 1.4.6 2.8 1.8 3.3-.9 5.8-1.3 11.7-1.3 17.7s.5 11.899 1.3 17.7c-1.3.5-2.1 1.8-1.8 3.199.2 1.4 1.5 2.4 2.8 2.4 2.4 11.8 6.5 22.9 12.1 33.2-1.1.899-1.4 2.5-.6 3.7.7 1.3 2.2 1.8 3.5 1.3 6.2 10.1 13.9 19.2 22.7 27-.7 1.2-.5 2.8.6 3.7 1.1.899 2.7.899 3.8 0 9.2 7.3 19.4 13.3 30.5 17.699-.2 1.4.5 2.7 1.9 3.2 1.3.5 2.8-.1 3.5-1.2 11 3.7 22.6 5.801 34.8 6.101.3 1.399 1.4 2.399 2.9 2.399 1.4 0 2.6-1 2.9-2.399 12.1-.3 23.8-2.4 34.8-6.101.7 1.2 2.2 1.7 3.5 1.2s2.1-1.899 1.899-3.2C201.7 255.7 212 249.7 221.1 242.4c1.101.899 2.7.899 3.801 0 1.1-.9 1.399-2.5.6-3.7 8.8-7.8 16.5-16.9 22.7-27 1.3.5 2.8 0 3.5-1.3.7-1.2.399-2.801-.601-3.7 5.601-10.2 9.7-21.4 12.101-33.2 1.399 0 2.6-1 2.8-2.4.299-1.5-.501-2.9-1.801-3.4zm-39.4 70c-1.1-.8-2.6-.8-3.6.1-1.101.9-1.3 2.4-.7 3.601-9.1 7.3-19.2 13.199-30.2 17.5-.7-1.101-2.2-1.7-3.5-1.2s-2.1 1.8-1.899 3.2c-10.801 3.699-22.4 5.8-34.4 6.1-.3-1.3-1.5-2.3-2.9-2.3s-2.6 1-2.9 2.3c-12-.3-23.6-2.4-34.4-6.1.2-1.301-.6-2.7-1.9-3.2-1.3-.5-2.8 0-3.5 1.2-11-4.301-21.2-10.301-30.2-17.5.6-1.2.3-2.7-.7-3.601-1.1-.899-2.6-.899-3.6-.1C61.6 230 54 221 47.9 211c1-.9 1.2-2.4.5-3.6-.7-1.2-2.1-1.7-3.4-1.301-5.5-10.1-9.6-21.199-12-32.8 1.3-.5 2-1.8 1.8-3.2-.2-1.399-1.4-2.399-2.8-2.399-.9-5.7-1.3-11.5-1.3-17.5 0-5.9.4-11.8 1.3-17.5 1.4 0 2.5-1 2.8-2.4.2-1.4-.5-2.7-1.8-3.2 2.3-11.7 6.4-22.7 12-32.8 1.3.4 2.7-.1 3.4-1.3.7-1.2.4-2.7-.5-3.6 6.1-10 13.7-19 22.5-26.7 1.1.8 2.6.8 3.6-.1 1.1-.9 1.3-2.4.7-3.6 9.1-7.3 19.2-13.2 30.2-17.5.7 1.1 2.2 1.7 3.5 1.2 1.3-.5 2.1-1.8 1.9-3.2 10.8-3.7 22.4-5.8 34.4-6.1.3 1.3 1.5 2.3 2.9 2.3s2.6-1 2.9-2.3c12 .3 23.6 2.4 34.4 6.1-.2 1.3.6 2.7 1.899 3.2s2.8 0 3.5-1.2c11 4.3 21.2 10.3 30.2 17.5-.6 1.2-.3 2.7.7 3.6 1.1.9 2.6.9 3.6.1 8.7 7.5 16.3 16.5 22.4 26.5-1 .9-1.2 2.4-.5 3.6.7 1.2 2.1 1.7 3.399 1.3 5.5 10.1 9.601 21.2 12 32.8-1.3.5-2 1.8-1.8 3.2s1.4 2.4 2.8 2.4c.9 5.7 1.301 11.5 1.301 17.5s-.4 11.8-1.301 17.5c-1.399.1-2.5 1-2.8 2.4-.2 1.399.5 2.699 1.8 3.199-2.3 11.7-6.399 22.7-12 32.801-1.3-.4-2.699.1-3.399 1.3s-.4 2.7.5 3.6C241.1 221 233.5 230 224.8 237.7z">
		<animateTransform fill="remove" type="rotate" restart="always" calcMode="linear" additive="replace" accumulate="none" repeatCount="indefinite" dur="4s" begin="0s" values="0 147.5 150;360 147.5 150" attributeName="transform" />
	</path>
	<path d="M238.5 199.1c2.3-4.199 4.3-8.6 6-13.199 1.4.199 2.7-.601 3.2-2 .5-1.4-.101-2.801-1.3-3.5 1.399-4.601 2.5-9.301 3.3-14.101 1.399-.1 2.6-1.1 2.7-2.5.199-1.399-.7-2.7-2-3.2.5-4.899.6-9.699.5-14.5 1.3-.3 2.3-1.6 2.199-3-.1-1.4-1.199-2.5-2.6-2.7-.5-4.9-1.3-9.6-2.4-14.3 1.2-.6 1.9-2 1.601-3.4-.4-1.4-1.7-2.3-3.101-2.2-1.399-4.7-3.1-9.2-5.199-13.6 1.1-.8 1.5-2.4.899-3.7-.6-1.3-2.1-1.9-3.5-1.5-2.3-4.3-4.899-8.4-7.7-12.3 1-1 1.101-2.6.2-3.8-.899-1.2-2.5-1.5-3.7-.8-3.1-3.7-6.399-7.3-9.899-10.6.7-1.2.5-2.8-.601-3.7-1.1-1-2.699-1-3.8-.1-3.7-3.1-7.7-5.9-11.8-8.5.5-1.3-.1-2.8-1.3-3.5-1.2-.7-2.8-.4-3.7.6-4.2-2.3-8.6-4.3-13.2-6 .2-1.4-.6-2.7-2-3.2-1.399-.5-2.8.1-3.5 1.3-4.6-1.4-9.3-2.5-14.1-3.3-.101-1.4-1.101-2.6-2.5-2.7-1.4-.2-2.7.7-3.2 2-4.9-.5-9.7-.6-14.5-.5-.3-1.3-1.6-2.3-3-2.2s-2.5 1.2-2.7 2.6c-4.9.5-9.6 1.3-14.3 2.4-.6-1.2-2-1.9-3.4-1.6-1.4.4-2.3 1.7-2.2 3.1-4.7 1.4-9.2 3.1-13.6 5.2-.8-1.1-2.4-1.5-3.7-.9-1.3.6-1.9 2.1-1.5 3.5-4.3 2.3-8.4 4.9-12.3 7.7-1-1-2.6-1.1-3.8-.2-1.1.9-1.5 2.5-.8 3.7-3.7 3.1-7.3 6.4-10.6 9.9-1.2-.7-2.8-.5-3.7.6-1 1.1-.9 2.7-.1 3.8-3.1 3.7-5.9 7.7-8.5 11.8-1.3-.5-2.8.1-3.5 1.3-.7 1.2-.4 2.8.6 3.7-2.3 4.2-4.3 8.6-6 13.2-1.4-.2-2.7.6-3.2 2s.1 2.8 1.3 3.5c-1.4 4.6-2.5 9.3-3.3 14.1-1.4.1-2.6 1.1-2.7 2.6-.2 1.4.7 2.7 2 3.2-.5 4.9-.6 9.7-.4 14.5-1.3.4-2.3 1.601-2.2 3 .1 1.4 1.2 2.5 2.6 2.7.5 4.9 1.3 9.601 2.4 14.3-1.2.601-1.9 2-1.6 3.4.4 1.4 1.7 2.3 3.1 2.2 1.4 4.7 3.1 9.2 5.2 13.6-1.1.8-1.5 2.4-.9 3.7.6 1.3 2.1 1.9 3.5 1.5 2.3 4.3 4.9 8.4 7.7 12.3-1 1-1.1 2.601-.2 3.8.9 1.2 2.5 1.5 3.7.801 3.1 3.699 6.4 7.3 9.9 10.6-.7 1.2-.5 2.8.6 3.7 1.1 1 2.7.899 3.8.1 3.7 3.101 7.7 5.9 11.8 8.5-.5 1.3.1 2.8 1.3 3.5 1.2.7 2.8.4 3.7-.6 4.2 2.3 8.6 4.3 13.2 6-.2 1.399.6 2.7 2 3.2s2.8-.101 3.5-1.301c4.6 1.4 9.3 2.5 14.1 3.301.1 1.399 1.1 2.6 2.6 2.699 1.4.2 2.7-.699 3.2-2 4.9.5 9.7.601 14.5.5.4 1.301 1.601 2.301 3 2.2 1.4-.1 2.5-1.2 2.7-2.6 4.9-.5 9.601-1.3 14.3-2.4.601 1.2 2 1.9 3.4 1.601 1.4-.4 2.3-1.7 2.2-3.101 4.7-1.399 9.2-3.1 13.6-5.2.8 1.101 2.4 1.5 3.7.9s1.9-2.1 1.5-3.5c4.3-2.3 8.4-4.9 12.3-7.7 1 1 2.601 1.101 3.8.2 1.2-.9 1.5-2.5.801-3.7 3.699-3.1 7.3-6.399 10.6-9.899 1.2.699 2.8.5 3.7-.601 1-1.1 1-2.7.1-3.8 3.101-3.7 5.9-7.7 8.5-11.8 1.3.5 2.8-.101 3.5-1.3.6-1.4.3-2.9-.8-3.8zm-4.4.7c-.699 1.2-.399 2.7.601 3.601-2.5 4.1-5.3 8-8.3 11.6-1.2-.6-2.7-.4-3.601.7-.899 1-.899 2.6-.2 3.6-3.3 3.5-6.8 6.8-10.5 9.8-1-.8-2.5-.899-3.6 0-1.1.801-1.4 2.301-.9 3.5-3.9 2.799-7.9 5.399-12.2 7.599-.801-1-2.301-1.4-3.601-.8-1.2.6-1.899 2-1.5 3.3-4.3 2-8.8 3.7-13.399 5.1-.601-1.2-2-1.8-3.4-1.5-1.4.4-2.2 1.601-2.2 3-4.6 1.101-9.3 1.9-14.1 2.4-.4-1.3-1.601-2.2-3-2.101-1.4.101-2.5 1.2-2.7 2.5-4.7.2-9.5 0-14.3-.399-.1-1.3-1.2-2.5-2.5-2.7-1.4-.2-2.7.6-3.1 1.9-4.8-.801-9.4-1.801-14-3.2.2-1.3-.6-2.7-2-3.101-1.3-.5-2.8.101-3.5 1.301-4.5-1.7-8.9-3.601-13-5.9.4-1.3-.1-2.7-1.3-3.4-1.2-.699-2.7-.399-3.6.601-4.1-2.5-8-5.3-11.6-8.3.6-1.2.4-2.7-.7-3.601-1-.899-2.6-.899-3.6-.2-3.5-3.3-6.8-6.8-9.8-10.5.8-1 .9-2.5 0-3.6-.8-1.1-2.3-1.4-3.5-.9-2.8-3.899-5.4-7.899-7.6-12.199 1-.801 1.4-2.301.8-3.601-.6-1.2-2-1.899-3.3-1.5-2-4.3-3.7-8.8-5.1-13.399 1.2-.601 1.8-2 1.5-3.4-.4-1.4-1.6-2.2-3-2.2-1.1-4.6-1.9-9.3-2.4-14.1 1.3-.4 2.2-1.601 2.1-3-.1-1.4-1.2-2.5-2.5-2.7-.2-4.7 0-9.5.4-14.3 1.3-.1 2.5-1.2 2.7-2.5.2-1.4-.6-2.7-1.9-3.1.8-4.8 1.8-9.4 3.2-14 1.3.2 2.7-.6 3.1-2 .5-1.3-.1-2.8-1.3-3.5 1.7-4.5 3.6-8.9 5.9-13 1.3.4 2.7-.1 3.4-1.3.7-1.2.4-2.7-.6-3.6 2.5-4.1 5.3-8 8.3-11.6 1.2.6 2.7.4 3.6-.7.9-1 .9-2.6.2-3.6C75.8 77.3 79.3 74 83 71c1 .8 2.5.9 3.6 0 1.1-.8 1.4-2.3.9-3.5 3.9-2.8 7.9-5.4 12.2-7.6.8 1 2.3 1.4 3.6.8 1.2-.6 1.9-2 1.5-3.3 4.3-2 8.8-3.7 13.4-5.1.6 1.2 2 1.8 3.4 1.5 1.4-.4 2.2-1.6 2.2-3 4.6-1.1 9.3-1.9 14.1-2.4.4 1.3 1.6 2.2 3 2.1s2.5-1.2 2.7-2.5c4.7-.2 9.5 0 14.3.4.1 1.3 1.199 2.5 2.5 2.7 1.399.2 2.699-.6 3.1-1.9 4.8.8 9.4 1.8 14 3.2-.1 1.3.6 2.7 2 3.1 1.3.5 2.8-.1 3.5-1.3 4.5 1.7 8.9 3.6 13.1 5.9-.399 1.3.101 2.7 1.301 3.4 1.199.7 2.699.4 3.6-.6 4.1 2.5 8 5.3 11.6 8.3-.6 1.2-.399 2.7.7 3.6 1 .9 2.601.9 3.601.2 3.5 3.3 6.8 6.8 9.8 10.5-.8 1-.9 2.5 0 3.6.8 1.1 2.3 1.4 3.5.9 2.8 3.9 5.399 7.9 7.6 12.2-1 .8-1.399 2.3-.8 3.6.6 1.2 2 1.9 3.3 1.5 2 4.3 3.7 8.8 5.101 13.4-1.2.6-1.801 2-1.5 3.4.399 1.4 1.6 2.2 3 2.2 1.1 4.6 1.899 9.3 2.399 14.1-1.3.4-2.2 1.6-2.1 3 .1 1.4 1.2 2.5 2.5 2.7.2 4.7 0 9.5-.4 14.3-1.3.1-2.5 1.199-2.7 2.5-.199 1.399.601 2.699 1.9 3.1-.8 4.8-1.8 9.4-3.2 14-1.3-.1-2.7.6-3.1 2-.5 1.3.1 2.8 1.3 3.5-1.7 4.5-3.6 8.9-5.9 13.1-1.402-.5-2.802 0-3.502 1.2z">
		<animateTransform fill="remove" type="rotate" restart="always" calcMode="linear" additive="replace" accumulate="none" repeatCount="indefinite" dur="3.5s" begin="0s" values="360 147.5 150;0 147.5 150" attributeName="transform" />
	</path>
	<path d="M222.1 202.3c.801-1.2.7-2.7-.3-3.7 4.7-7.1 8.2-14.8 10.601-22.8 1.399.101 2.699-.8 3.1-2.2.4-1.399-.3-2.8-1.6-3.399 1.899-8.2 2.6-16.601 2.199-25 1.4-.4 2.301-1.6 2.2-3.1-.1-1.4-1.3-2.5-2.7-2.7-1-8.3-3.1-16.5-6.5-24.2 1.101-.8 1.601-2.3 1-3.6-.6-1.3-2-1.9-3.399-1.6-3.7-7.3-8.5-14.3-14.4-20.6.8-1.1.7-2.7-.3-3.7s-2.6-1.1-3.7-.3c-6.3-5.9-13.2-10.7-20.6-14.4.3-1.3-.3-2.8-1.601-3.4-1.3-.6-2.8-.2-3.6 1-7.8-3.3-16-5.5-24.2-6.5-.1-1.4-1.2-2.5-2.7-2.7-1.399-.1-2.699.8-3.1 2.2-8.4-.5-16.8.3-25 2.2-.6-1.3-2-2-3.4-1.6-1.4.4-2.3 1.7-2.2 3.1-7.9 2.4-15.6 5.9-22.8 10.6-1-1-2.6-1.1-3.7-.3-1.2.8-1.6 2.4-1 3.6-3.3 2.5-6.5 5.2-9.5 8.2s-5.8 6.2-8.2 9.5c-1.3-.6-2.8-.2-3.6 1-.8 1.2-.7 2.7.3 3.7-4.7 7.1-8.2 14.8-10.6 22.8-1.4-.1-2.7.8-3.1 2.2-.4 1.4.3 2.8 1.6 3.4-1.9 8.2-2.6 16.6-2.2 25-1.4.4-2.3 1.6-2.2 3.1.1 1.4 1.3 2.5 2.7 2.7 1 8.3 3.1 16.5 6.5 24.2-1.1.8-1.6 2.3-1 3.6.6 1.301 2 1.9 3.4 1.601 3.7 7.3 8.5 14.3 14.4 20.6-.8 1.101-.7 2.7.3 3.7s2.6 1.1 3.7.3c6.3 5.9 13.2 10.7 20.6 14.4-.3 1.3.3 2.8 1.6 3.399 1.3.601 2.8.2 3.6-1 7.8 3.301 16 5.5 24.2 6.5.1 1.4 1.2 2.5 2.7 2.7 1.4.101 2.7-.8 3.1-2.2 8.399.5 16.8-.3 25-2.199.6 1.3 2 2 3.399 1.6 1.4-.4 2.301-1.7 2.2-3.1 7.9-2.4 15.601-5.9 22.8-10.601 1 1 2.601 1.101 3.7.3 1.2-.8 1.601-2.399 1-3.6 3.3-2.5 6.5-5.2 9.5-8.2s5.8-6.2 8.2-9.5c1.201.599 2.701.199 3.601-1.001zm-79.4 35.1c-.2-1.301-1.3-2.4-2.6-2.5-1.4-.101-2.6.699-3 2-8.2-1-16.2-3.101-23.9-6.4.3-1.3-.4-2.7-1.6-3.3-1.3-.601-2.7-.2-3.6.899-7.2-3.699-14.1-8.399-20.3-14.199.7-1.101.6-2.7-.4-3.601-1-1-2.5-1.1-3.6-.399-5.8-6.2-10.5-13-14.2-20.301 1.1-.8 1.5-2.3.9-3.6s-2-1.9-3.3-1.6c-3.3-7.7-5.4-15.7-6.4-23.9 1.3-.4 2.1-1.7 2-3-.1-1.4-1.2-2.4-2.5-2.6-.4-8.3.3-16.601 2.1-24.601 1.3 0 2.6-.8 2.9-2.2.4-1.3-.3-2.7-1.5-3.4 2.4-7.8 5.8-15.4 10.4-22.4 1.2.5 2.7.1 3.5-1 .8-1.1.7-2.7-.2-3.7 2.5-3.3 5.2-6.4 8.1-9.4s6.1-5.7 9.4-8.1c1 .9 2.5 1 3.7.2 1.2-.8 1.5-2.3 1-3.5 7-4.6 14.6-8.1 22.4-10.4.6 1.2 2 1.8 3.4 1.5 1.3-.4 2.2-1.6 2.2-2.9 8.1-1.9 16.4-2.6 24.7-2.1.2 1.3 1.3 2.4 2.601 2.5 1.399.1 2.6-.7 3-2 8.199 1 16.199 3.1 23.899 6.4-.3 1.3.4 2.7 1.601 3.3 1.3.6 2.699.2 3.6-.9 7.2 3.7 14.1 8.4 20.3 14.2-.7 1.1-.6 2.7.4 3.6 1 1 2.5 1.1 3.6.4 5.8 6.2 10.5 13 14.2 20.3-1.1.8-1.5 2.3-.9 3.6.601 1.3 2 1.9 3.301 1.6 3.3 7.7 5.399 15.7 6.399 23.9-1.3.4-2.1 1.7-2 3 .101 1.4 1.2 2.5 2.5 2.6.4 8.3-.3 16.6-2.1 24.7-1.3 0-2.601.801-2.9 2.2-.399 1.4.3 2.7 1.5 3.4-2.399 7.8-5.8 15.399-10.399 22.399-1.2-.5-2.7-.1-3.5 1-.801 1.101-.7 2.7.199 3.7-2.5 3.3-5.199 6.399-8.1 9.399-3 3-6.1 5.701-9.4 8.101-1-.899-2.5-1-3.699-.2-1.101.801-1.5 2.301-1 3.5-7 4.601-14.601 8.101-22.4 10.4-.6-1.2-2-1.801-3.4-1.5-1.3.4-2.199 1.6-2.199 2.9C159.3 237.1 151 237.9 142.7 237.4z">
		<animateTransform fill="remove" type="rotate" restart="always" calcMode="linear" additive="replace" accumulate="none" repeatCount="indefinite" dur="3s" begin="0s" values="0 147.5 150;360 147.5 150" attributeName="transform" />
	</path>
	<path d="M224 150.1c0-1.5-1.1-2.7-2.6-2.9-.7-18.2-8-34.8-19.601-47.4.9-1.1.8-2.8-.3-3.8-1-1-2.7-1.1-3.8-.3C185.1 84 168.6 76.7 150.3 76c-.2-1.4-1.399-2.4-2.9-2.4-1.4 0-2.6 1-2.9 2.4-18.3.7-34.9 8.1-47.4 19.7-1.1-.8-2.8-.8-3.8.3-1 1-1.1 2.7-.3 3.8-11.6 12.6-18.9 29.1-19.6 47.4-1.4.2-2.6 1.4-2.6 2.9s1.1 2.7 2.6 2.9c.7 18.2 8.1 34.7 19.7 47.2-1 1.2-1 2.899.1 4 1.1 1.1 2.8 1.1 4 .1 12.5 11.5 29 18.8 47.2 19.5.1 1.5 1.4 2.7 2.9 2.7s2.8-1.2 2.9-2.7c18.2-.7 34.7-8 47.2-19.5 1.199 1 2.899 1 4-.1 1.1-1.101 1.1-2.8.1-4 11.6-12.5 18.9-29 19.7-47.2 1.7-.2 2.8-1.4 2.8-2.9zm-3.7 2.8c-.7 18-8 34.3-19.5 46.6-1.1-.5-2.399-.3-3.399.6-.9.9-1.101 2.2-.601 3.301C184.4 214.8 168.1 222 150.2 222.7c-.4-1.101-1.5-2-2.8-2-1.3 0-2.3.8-2.8 2-18-.7-34.3-7.9-46.6-19.3.5-1.101.3-2.4-.6-3.301-.9-.899-2.3-1.1-3.3-.6-11.5-12.3-18.7-28.6-19.5-46.6 1.2-.4 2.1-1.5 2.1-2.8s-.9-2.5-2.1-2.8c.6-18 7.8-34.3 19.3-46.7 1.1.7 2.6.5 3.6-.4 1-1 1.1-2.4.4-3.6 12.4-11.5 28.7-18.7 46.7-19.4.3 1.3 1.5 2.3 2.9 2.3s2.6-1 2.9-2.3c18 .7 34.3 7.9 46.699 19.4-.699 1.1-.5 2.6.4 3.6 1 1 2.4 1.1 3.6.4 11.4 12.4 18.601 28.7 19.301 46.7-1.2.4-2.101 1.5-2.101 2.8-.199 1.301.701 2.401 2.001 2.801z">
		<animateTransform fill="remove" type="rotate" restart="always" calcMode="linear" additive="replace" accumulate="none" repeatCount="indefinite" dur="2.5s" begin="0s" values="360 147.5 150;0 147.5 150" attributeName="transform" />
	</path>
	<path d="M165.6 93.6c.101-1.4-.8-2.7-2.199-3.1-1.4-.4-2.801.3-3.4 1.6-30.7-6.7-61.6 12-69.8 42.6-8.2 30.7 9.3 62.3 39.2 71.8 0 1.3.8 2.6 2.2 2.9 1.3.399 2.7-.301 3.3-1.4 30.7 6.7 61.7-11.9 69.9-42.6C213 134.8 195.5 103.2 165.6 93.6zm-30.4 113.3c.1-1.4-.8-2.7-2.2-3.101-1.4-.399-2.8.3-3.4 1.601C100.3 196 83.2 165 91.3 135c8-30 38.3-48.3 68.4-41.8 0 1.3.8 2.6 2.2 2.9 1.399.3 2.699-.3 3.3-1.5 29.3 9.4 46.4 40.4 38.4 70.4-8 30.2-38.3 48.4-68.4 41.9z">
		<animateTransform fill="remove" type="rotate" restart="always" calcMode="linear" additive="replace" accumulate="none" repeatCount="indefinite" dur="2s" begin="0s" values="0 147.5 150;360 147.5 150" attributeName="transform" />
	</path>
	<path d="M172.8 120h-50.6c-2.7 0-4.8 2.2-4.8 4.8v50.6c0 2.699 2.2 4.8 4.8 4.8h50.6c2.7 0 4.8-2.2 4.8-4.8v-50.6c0-2.7-2.2-4.8-4.8-4.8zm-24.5 18.5c-.6.5-1.4.7-2.5.7h-7.2V163c0 1.4-.3 2.4-.9 3-.6.6-1.4 1-2.4 1s-1.8-.3-2.4-1-.9-1.7-.9-3v-23.8h-7.2c-1.1 0-2-.2-2.5-.7-.6-.5-.8-1.2-.8-2s.3-1.5.9-2 1.4-.7 2.5-.7H146c1.1 0 2 .3 2.6.8.601.5.801 1.2.801 2-.201.7-.501 1.4-1.101 1.9zm25.4 24.8c0 1.2-.3 2.101-.8 2.8-.601.601-1.301.9-2.2.9-2 0-3-1.2-3-3.7V153c0-2-.3-3.5-.9-4.5-.6-1-1.7-1.6-3.3-1.6-1.1 0-2.1.3-2.9.9-.899.6-1.5 1.5-2 2.5-.3.9-.5 2.5-.5 4.8v8.101c0 1.2-.3 2.1-.8 2.8-.5.6-1.3.9-2.3.9-2 0-3-1.2-3-3.7v-26.4c0-1.2.3-2.2.8-2.8s1.3-.9 2.2-.9c1 0 1.7.3 2.3.9.5.6.8 1.6.8 2.8v9c.801-.9 1.5-1.6 2.301-2.1.699-.5 1.6-.9 2.399-1.2.9-.3 1.9-.4 2.9-.4 1.6 0 2.899.3 4.1 1 1.2.7 2.101 1.6 2.8 2.9.4.7.7 1.5.9 2.4.1.9.2 1.9.2 3.1V163.3z" />
</svg>
