<svg xmlns="http://www.w3.org/2000/svg" xmlns:xlink="http://www.w3.org/1999/xlink">
	<!-- GitHub logo -->
	<symbol id="gitLogo" viewBox="0 0 14 14">
		<path d="M2.5 6.8c0 2.8 1.6 3.4 3.2 3.6 -0.2 0.2-0.4 0.5-0.4 1C5.1 11.4 4.8 11.5 4.5
	11.5c-0.4 0-0.9-0.2-1.2-0.8 0 0-0.4-0.7-1.1-0.7H2.2c0 0-0.6 0 0 0.4 0 0 0.5 0.2 0.8
	1.1 0 0 0.3 1.1 1.7 1.1 0.2 0 0.4 0 0.7-0.1 0 0.6 0 1.1 0 1.2S5.2 14 4.9 14c0 0-0.1
	0-0.1 0C2 13 0 10.4 0 7.2 0 3.2 3.1 0 7 0s7 3.2 7 7.2c0 3.2-2 5.9-4.8 6.8C9.2 14 9.1
	14 9.1 14c-0.3 0-0.4-0.2-0.4-0.4 0-0.2 0-1 0-2 0-0.7-0.2-1.1-0.5-1.3 1.6-0.2 3.2-0.8
	3.2-3.5 0-0.8-0.3-1.4-0.7-1.9 0.1-0.2 0.3-0.9-0.1-1.9 0 0 0 0-0.1 0 -0.2 0-0.8 0.1-1.8
	0.8C8.2 3.6 7.6 3.5 7 3.5 6.4 3.5 5.8 3.6 5.2 3.7 4.3 3.1 3.7 3 3.5 3c-0.1 0-0.2 0-0.2
	0C2.9 4 3.2 4.7 3.3 4.9 2.8 5.4 2.5 6 2.5 6.8z" />
	</symbol>
	<!-- Chevron up -->
	<symbol id="chevron-up" viewBox="0 0 24 24">
		<path d="M0 16.67l2.829 2.83 9.175-9.339 9.167 9.339 2.829-2.83-11.996-12.17z" />
	</symbol>
	<!-- Chevron down -->
	<svg id="chevron-down" viewBox="0 0 24 24">
		<path d="M0 7.33l2.829-2.83 9.175 9.339 9.167-9.339 2.829 2.83-11.996 12.17z" />
	</svg>
	<!-- Thorium Logo - Full -->
	<symbol id="thorium-logo-full" viewBox="0 0 206.6 50">
		<path d="M46 0H4C1.8 0 0 1.8 0 4v42c0 2.2 1.8 4 4 4h42c2.2 0 4-1.8 4-4V4C50 1.8 48.2
		0 46 0zM25.7 15.4c-0.5 0.4-1.2 0.6-2.1 0.6H17.6v19.8c0 1.1-0.3 2-0.8 2.5 -0.5 0.6-1.2
		0.8-2 0.8 -0.8 0-1.5-0.3-2-0.8 -0.5-0.6-0.8-1.4-0.8-2.5V16H6c-0.9 0-1.6-0.2-2.1-0.6
		-0.5-0.4-0.7-1-0.7-1.6 0-0.7 0.2-1.3 0.7-1.7 0.5-0.4 1.2-0.6 2.1-0.6h17.5c1 0 1.7 0.2
		2.1 0.6 0.5 0.4 0.7 1 0.7 1.7C26.4 14.4 26.1 14.9 25.7 15.4zM46.7 36c0 1-0.2 1.8-0.7
		2.3 -0.5 0.5-1.1 0.8-1.8 0.8 -1.7 0-2.5-1-2.5-3.1v-8.6c0-1.6-0.2-2.9-0.7-3.7s-1.4-1.3-2.7-1.3c-0.9 0-1.7
		0.3-2.4 0.8 -0.7 0.5-1.3 1.2-1.6 2.1 -0.3 0.8-0.4 2.1-0.4 4v6.7c0 1-0.2 1.8-0.7 2.3 -0.5 0.5-1.1 0.8-1.9
		0.8 -1.7 0-2.5-1-2.5-3.1V14c0-1 0.2-1.8 0.7-2.3 0.4-0.5 1.1-0.8 1.8-0.8 0.8 0 1.4 0.3 1.9 0.8 0.5 0.5 0.7
		1.3 0.7 2.3v7.5c0.6-0.7 1.3-1.3 1.9-1.8 0.6-0.4 1.3-0.8 2-1 0.7-0.2 1.5-0.3 2.4-0.3 1.3 0 2.4 0.3 3.4 0.8
		1 0.5 1.8 1.3 2.3 2.4 0.4 0.6 0.6 1.3 0.7 2 0.1 0.7 0.2 1.6 0.2 2.6V36z" />
		<path d="M71.5 28.8c0 1.5-0.2 2.9-0.7 4.2 -0.5 1.3-1.1 2.4-2 3.3s-2 1.6-3.2 2.1c-1.2 0.5-2.6
		0.7-4.2 0.7 -1.5 0-2.9-0.2-4.1-0.7s-2.3-1.2-3.2-2.1c-0.9-0.9-1.6-2-2-3.3 -0.5-1.3-0.7-2.6-0.7-4.2
		0-1.5 0.2-2.9 0.7-4.2 0.5-1.3 1.1-2.4 2-3.3 0.9-0.9 1.9-1.6 3.2-2.1 1.2-0.5 2.6-0.7 4.1-0.7 1.5 0
		2.9 0.2 4.2 0.7 1.2 0.5 2.3 1.2 3.2 2.1 0.9 0.9 1.6 2 2 3.3C71.3 25.9 71.5 27.3 71.5 28.8zM66.4
		28.8c0-2.1-0.5-3.7-1.4-4.8 -0.9-1.1-2.1-1.7-3.7-1.7 -1 0-1.9 0.3-2.6 0.8 -0.8 0.5-1.3 1.3-1.7 2.3s-0.6
		2.2-0.6 3.5c0 1.3 0.2 2.5 0.6 3.5 0.4 1 1 1.7 1.7 2.3 0.7 0.5 1.6 0.8 2.6 0.8 1.5 0 2.8-0.6 3.7-1.7C66
		32.4 66.4 30.8 66.4 28.8z" />
		<path d="M80.5 31.8v4.2c0 1-0.2 1.8-0.7 2.3 -0.5 0.5-1.1 0.8-1.8 0.8 -0.7 0-1.3-0.3-1.8-0.8
		-0.5-0.5-0.7-1.3-0.7-2.3V21.9c0-2.3 0.8-3.4 2.5-3.4 0.8 0 1.4 0.3 1.8 0.8 0.4 0.5 0.6 1.3 0.6 2.4
		0.6-1 1.2-1.8 1.9-2.4 0.6-0.5 1.5-0.8 2.6-0.8 1.1 0 2.1 0.3 3.1 0.8 1 0.5 1.5 1.2 1.5 2.1 0 0.6-0.2
		1.1-0.6 1.5 -0.4 0.4-0.9 0.6-1.4 0.6 -0.2 0-0.6-0.1-1.3-0.3 -0.7-0.2-1.3-0.3-1.9-0.3 -0.7 0-1.3 0.2-1.8
		0.6 -0.5 0.4-0.8 1-1.1 1.7 -0.3 0.8-0.4 1.7-0.5 2.7C80.6 29 80.5 30.3 80.5 31.8z" />
		<path d="M94.7 16.1c-0.7 0-1.3-0.2-1.8-0.6 -0.5-0.4-0.8-1-0.8-1.8 0-0.7 0.3-1.3 0.8-1.8 0.5-0.5 1.1-0.7
		1.8-0.7 0.7 0 1.2 0.2 1.7 0.6 0.5 0.4 0.8 1 0.8 1.8 0 0.8-0.2 1.4-0.7 1.8C96 15.9 95.4 16.1 94.7 16.1zM97.2
		21.4v14.6c0 1-0.2 1.8-0.7 2.3s-1.1 0.8-1.8 0.8 -1.3-0.3-1.8-0.8c-0.5-0.5-0.7-1.3-0.7-2.3V21.5c0-1 0.2-1.8
		0.7-2.3 0.5-0.5 1.1-0.8 1.8-0.8s1.4 0.3 1.8 0.8C97 19.8 97.2 20.5 97.2 21.4z" />
		<path d="M115.6 36.2v-0.6c-0.6 0.8-1.2 1.4-1.9 1.9s-1.4 0.9-2.2 1.2c-0.8 0.3-1.7 0.4-2.7 0.4 -1.2
		0-2.3-0.3-3.3-0.8 -1-0.5-1.7-1.2-2.3-2.1 -0.6-1.1-0.9-2.6-0.9-4.6V21.5c0-1 0.2-1.8 0.7-2.3 0.5-0.5
		1.1-0.8 1.8-0.8 0.8 0 1.4 0.3 1.9 0.8 0.5 0.5 0.7 1.3 0.7 2.3v8.1c0 1.2 0.1 2.2 0.3 3 0.2 0.8 0.6 1.4
		1.1 1.9 0.5 0.5 1.2 0.7 2.1 0.7 0.9 0 1.7-0.3 2.4-0.8 0.8-0.5 1.3-1.2 1.7-2 0.3-0.7 0.4-2.3 0.4-4.7v-6.2c0-1
		0.2-1.8 0.7-2.3 0.5-0.5 1.1-0.8 1.8-0.8 0.8 0 1.4 0.3 1.8 0.8 0.5 0.5 0.7 1.3 0.7 2.3v14.7c0 1-0.2 1.7-0.7 2.2
		-0.4 0.5-1 0.7-1.7 0.7 -0.7 0-1.3-0.2-1.7-0.8C115.8 37.8 115.6 37.1 115.6 36.2z" />
		<path d="M142.3 29.2v6.7c0 1.1-0.2 1.9-0.7 2.4s-1.1 0.8-1.9 0.8c-0.8 0-1.4-0.3-1.9-0.8 -0.5-0.5-0.7-1.3-0.7-2.4v-8.1c0-1.3
		0-2.3-0.1-3 -0.1-0.7-0.3-1.3-0.7-1.7 -0.4-0.5-1-0.7-1.8-0.7 -1.7 0-2.7 0.6-3.3 1.7 -0.5 1.1-0.8 2.8-0.8 4.9v6.8c0 1.1-0.2
		1.8-0.7 2.4 -0.5 0.5-1.1 0.8-1.9 0.8 -0.8 0-1.4-0.3-1.9-0.8 -0.5-0.5-0.7-1.3-0.7-2.4V21.4c0-1 0.2-1.7 0.7-2.2 0.4-0.5 1-0.7
		1.7-0.7 0.7 0 1.3 0.2 1.7 0.7 0.5 0.5 0.7 1.1 0.7 1.9v0.5c0.9-1.1 1.8-1.8 2.8-2.3 1-0.5 2.1-0.7 3.3-0.7 1.3 0 2.4 0.3 3.3
		0.8 0.9 0.5 1.7 1.3 2.3 2.3 0.9-1 1.8-1.8 2.7-2.3 1-0.5 2.1-0.8 3.2-0.8 1.4 0 2.6 0.3 3.6 0.8 1 0.5 1.8 1.3 2.2 2.3 0.4
		0.9 0.6 2.4 0.6 4.3v9.9c0 1.1-0.2 1.9-0.7 2.4s-1.1 0.8-1.9 0.8c-0.8 0-1.4-0.3-1.9-0.8 -0.5-0.5-0.7-1.3-0.7-2.4V27.4c0-1.1
		0-2-0.1-2.6 -0.1-0.7-0.3-1.2-0.8-1.7s-1-0.7-1.9-0.7c-0.7 0-1.3 0.2-1.9 0.6 -0.6 0.4-1.1 0.9-1.4 1.6C142.4 25.5 142.3 27
		142.3 29.2z" />
		<path d="M165.7 31h-5.9c-0.9 0-1.6-0.2-2-0.6 -0.5-0.4-0.7-0.9-0.7-1.6 0-0.7 0.2-1.2 0.7-1.6 0.5-0.4
		1.1-0.6 2.1-0.6h5.9c0.9 0 1.6 0.2 2.1 0.6 0.5 0.4 0.7 1 0.7 1.6 0 0.7-0.2 1.2-0.7 1.6C167.3 30.8 166.6
		31 165.7 31z" />
		<path d="M172.1 27.4V14.3c0-1.1 0.3-1.9 0.8-2.5 0.5-0.6 1.2-0.8 2-0.8 0.9 0 1.5 0.3 2 0.8 0.5 0.6 0.8 1.4
		0.8 2.5v13.4c0 1.5 0.2 2.8 0.5 3.8 0.3 1 0.9 1.8 1.8 2.4 0.9 0.6 2.1 0.8 3.6 0.8 2.2 0 3.7-0.6 4.6-1.7
		0.9-1.1 1.3-2.9 1.3-5.2V14.3c0-1.1 0.2-2 0.7-2.5 0.5-0.5 1.2-0.8 2-0.8 0.8 0 1.5 0.3 2 0.8 0.5 0.6 0.8
		1.4 0.8 2.5V27.4c0 2.1-0.2 3.9-0.6 5.3 -0.4 1.4-1.2 2.7-2.3 3.7 -1 0.9-2.1 1.6-3.5 2 -1.3 0.4-2.8 0.6-4.6
		0.6 -2.1 0-3.9-0.2-5.4-0.7 -1.5-0.5-2.7-1.1-3.7-2.1 -1-0.9-1.7-2.2-2.1-3.6S172.1 29.4 172.1 27.4z" />
		<path d="M201.1 35.7V14.3c0-1.1 0.3-1.9 0.8-2.5 0.5-0.6 1.2-0.8 2-0.8 0.8 0 1.5 0.3 2 0.8 0.5 0.6 0.8 1.4
		0.8 2.5v21.4c0 1.1-0.3 2-0.8 2.5 -0.5 0.6-1.2 0.8-2 0.8 -0.8 0-1.4-0.3-2-0.8C201.4 37.7 201.1 36.9 201.1
		35.7z" />
	</symbol>
</svg>
